<?xml version="1.0" encoding="UTF-8" standalone="no"?>
<!-- Created with Inkscape (http://www.inkscape.org/) -->

<svg
   width="170.87274mm"
   height="191.00826mm"
   viewBox="0 0 170.87274 191.00826"
   version="1.1"
   id="svg1"
   xml:space="preserve"
   inkscape:version="1.3.2 (091e20e, 2023-11-25)"
   sodipodi:docname="icon.svg"
   xmlns:inkscape="http://www.inkscape.org/namespaces/inkscape"
   xmlns:sodipodi="http://sodipodi.sourceforge.net/DTD/sodipodi-0.dtd"
   xmlns="http://www.w3.org/2000/svg"
   xmlns:svg="http://www.w3.org/2000/svg"><sodipodi:namedview
     id="namedview1"
     pagecolor="#ffffff"
     bordercolor="#000000"
     borderopacity="0.25"
     inkscape:showpageshadow="2"
     inkscape:pageopacity="0.0"
     inkscape:pagecheckerboard="0"
     inkscape:deskcolor="#d1d1d1"
     inkscape:document-units="mm"
     showgrid="false"
     inkscape:zoom="0.29604273"
     inkscape:cx="391.83533"
     inkscape:cy="143.56036"
     inkscape:window-width="1512"
     inkscape:window-height="920"
     inkscape:window-x="0"
     inkscape:window-y="34"
     inkscape:window-maximized="0"
     inkscape:current-layer="layer1" /><defs
     id="defs1" /><g
     inkscape:label="Layer 1"
     inkscape:groupmode="layer"
     id="layer1"
     transform="translate(-25.305256,-41.341991)"><path
       style="fill:#f35d68;fill-opacity:1;stroke:#000000;stroke-width:0;stroke-linecap:round;stroke-miterlimit:0"
       id="path5"
       sodipodi:type="arc"
       sodipodi:cx="109.68722"
       sodipodi:cy="66.359627"
       sodipodi:rx="23.488113"
       sodipodi:ry="19.383396"
       sodipodi:start="1.5707963"
       sodipodi:end="0.68945056"
       sodipodi:open="true"
       sodipodi:arc-type="arc"
       d="M 109.68722,85.743023 A 23.488113,19.383396 0 0 1 86.766954,70.596022 23.488113,19.383396 0 0 1 99.668406,48.828026 23.488113,19.383396 0 0 1 128.2281,54.45989 23.488113,19.383396 0 0 1 127.81054,78.689663"
       inkscape:label="path5" /><path
       style="fill:#ff8f80;fill-opacity:1;stroke:#000000;stroke-width:0;stroke-linecap:round;stroke-miterlimit:0"
       d="m 44.706367,184.53266 0.951199,25.68239 7.609594,13.31678 16.645987,5.7072 91.315133,-2.8536 12.84119,-11.88999 3.8048,-37.57237 -2.378,-75.14474 L 164.08188,83.229938 140.7775,69.913147 97.973527,68.010751 64.205953,76.571543 51.364763,93.217531 46.133165,116.99751 Z"
       id="path3"
       inkscape:label="path3" /><rect
       style="fill:#ffc131;fill-opacity:1;stroke:#000000;stroke-width:0;stroke-linecap:round;stroke-miterlimit:0"
       id="rect2"
       width="20.401886"
       height="33.855186"
       x="100.94767"
       y="84.957703" /><path
       style="fill:#f35d68;fill-opacity:1;stroke:#000000;stroke-width:0;stroke-linecap:round;stroke-miterlimit:0"
       id="path4"
       sodipodi:type="arc"
       sodipodi:cx="110.03172"
       sodipodi:cy="136.64505"
       sodipodi:rx="39.694309"
       sodipodi:ry="13.554605"
       sodipodi:start="1.5707963"
       sodipodi:end="0.68945056"
       sodipodi:open="true"
       sodipodi:arc-type="arc"
       d="m 110.03172,150.19965 a 39.694309,13.554605 0 0 1 -38.734655,-10.59213 39.694309,13.554605 0 0 1 21.803123,-15.22213 39.694309,13.554605 0 0 1 48.265152,3.9383 39.694309,13.554605 0 0 1 -0.70566,16.94362" /><rect
       style="fill:#f35d68;fill-opacity:1;stroke:#000000;stroke-width:0;stroke-linecap:round;stroke-miterlimit:0"
       id="rect4"
       width="77.970512"
       height="49.244541"
       x="72.108078"
       y="163.56223"
       ry="16.25548" /><path
       style="fill:#ffc131;fill-opacity:1;stroke:#000000;stroke-width:0;stroke-linecap:round;stroke-miterlimit:0"
       d="m 86.123531,112.56052 50.870049,-0.44158 -26.25478,29.04657 C 92.965488,121.02858 95.367791,122.03614 86.123531,112.56052 Z"
       id="path2"
       sodipodi:nodetypes="cccc"
       inkscape:label="path2" /><rect
       style="fill:#f45e69;fill-opacity:1;stroke:#000000;stroke-width:0;stroke-linecap:round;stroke-miterlimit:0"
       id="rect1"
       width="12.312589"
       height="52.328503"
       x="33.058346"
       y="141.50786" /><rect
       style="fill:#f45e69;fill-opacity:1;stroke:#000000;stroke-width:0;stroke-linecap:round;stroke-miterlimit:0"
       id="rect1-4"
       width="12.312589"
       height="52.328503"
       x="178.2809"
       y="141.42241" /><path
       style="fill:#6e374f;fill-opacity:1"
       d="m 62.962688,231.9757 c -2.520108,-0.4573 -4.295061,-1.05596 -6.790775,-2.29041 -2.737649,-1.35411 -4.103255,-2.31809 -6.47703,-4.57216 -5.807261,-5.5144 -8.763736,-12.36182 -8.777259,-20.3288 -0.0052,-3.06293 -0.04932,-3.37344 -0.479304,-3.37344 -1.079644,0 -3.769023,-0.86832 -5.859177,-1.89176 -2.923651,-1.43156 -6.06037,-4.4767 -7.520138,-7.30059 -1.7514,-3.38804 -1.747814,-3.33792 -1.752929,-24.50383 -0.005,-20.82637 -0.03346,-20.40108 1.59184,-23.81694 2.200189,-4.62409 7.199279,-8.36663 12.355455,-9.24985 l 1.649805,-0.2826 0.01797,-10.86107 c 0.01881,-11.37008 0.02125,-11.42769 0.659928,-15.55281 2.405246,-15.535182 13.493356,-30.321192 28.038117,-37.388882 3.030158,-1.47243 7.671998,-3.14419 9.565042,-3.44484 l 1.098375,-0.17444 0.31392,-2.14691 c 1.27038,-8.68818 6.448643,-16.01783 14.311813,-20.25787 4.722626,-2.54657 7.959069,-3.19092 16.054789,-3.19637 5.21941,-0.004 6.51935,0.0771 8.55686,0.531 8.84952,1.97119 15.48666,7.29705 19.33938,15.51854 1.13695,2.42618 2.32962,6.69091 2.32962,8.33021 0,0.59496 0.14019,1.07628 0.33073,1.1355 0.1819,0.0565 1.43161,0.40833 2.77714,0.78177 6.8811,1.90982 12.55544,5.10511 18.94672,10.66916 8.16066,7.10441 14.18494,17.36542 16.28114,27.731282 0.89152,4.40863 1.08718,7.68637 1.08718,18.21296 v 10.09808 l 1.7594,0.33376 c 5.1691,0.98057 9.9395,4.48903 12.07509,8.8808 1.75154,3.60197 1.6373,2.00568 1.70654,23.84674 0.0696,21.94992 0.11727,21.2326 -1.64324,24.72014 -1.18654,2.35051 -2.74463,4.24201 -4.71334,5.72192 -2.74645,2.06454 -4.60803,2.84184 -8.19226,3.42065 l -0.99219,0.16023 -8.4e-4,2.69999 c -0.004,13.75525 -8.68164,24.89891 -21.56112,27.68936 -2.47542,0.53632 -3.0634,0.54263 -48.34958,0.51904 -36.364865,-0.0189 -46.235279,-0.0949 -47.737669,-0.36756 z m 94.000482,-8.74797 c 7.15362,-1.24258 12.74954,-6.83576 14.39862,-14.39154 0.52634,-2.41162 0.53276,-3.12685 0.44998,-50.11352 l -0.084,-47.66698 -0.59691,-2.61125 c -2.31018,-10.106012 -7.03936,-17.986482 -14.57389,-24.285222 -7.02366,-5.87166 -14.87403,-9.07555 -25.30337,-10.32681 -4.04301,-0.48505 -37.825352,-0.48975 -41.261516,-0.006 -1.309688,0.18449 -2.8575,0.39802 -3.439583,0.47451 -2.28025,0.29967 -8.069778,1.96329 -10.583333,3.04111 -9.934982,4.26017 -17.70714,11.66972 -22.208665,21.17253 -2.329622,4.917882 -3.732937,10.383882 -4.102746,15.980442 -0.115389,1.74625 -0.188915,23.29656 -0.163391,47.88958 0.05117,49.30801 -0.06267,45.95332 1.700016,50.09557 2.448931,5.7549 7.251979,9.68435 13.283585,10.8675 0.644848,0.1265 21.18912,0.24304 45.653933,0.25898 38.9824,0.0254 44.77198,-0.0215 46.83125,-0.37917 z m -76.231482,-8.50945 c -6.122948,-1.03236 -11.599599,-6.16769 -13.222502,-12.39844 -0.593453,-2.27842 -0.588483,-25.88799 0.006,-28.41007 1.184895,-5.02705 5.040846,-9.4529 9.962034,-11.4344 l 2.196154,-0.88427 30.162496,-0.0823 c 21.71347,-0.0592 30.57013,0.002 31.61771,0.21723 0.80036,0.16473 2.55116,0.83542 3.89066,1.49041 3.33239,1.62949 5.72186,4.01273 7.38456,7.36534 1.76842,3.56575 1.86496,4.55263 1.79933,18.39367 -0.0619,13.06284 -0.0716,13.14985 -1.87886,16.93334 -1.3679,2.86367 -4.47629,5.90531 -7.52034,7.35886 -1.22108,0.58307 -2.87499,1.2094 -3.67535,1.39184 -2.21307,0.50446 -57.759632,0.55822 -60.721872,0.0588 z m 58.644222,-8.37569 c 2.89434,-0.68125 4.72796,-2.18275 6.02254,-4.9317 0.67003,-1.42275 0.68723,-1.60004 0.77128,-7.94831 l 0.0859,-6.49311 -35.49346,0.005 -35.493461,0.005 0.0949,6.62067 c 0.08695,6.06604 0.141807,6.72269 0.654861,7.83852 1.12983,2.45726 3.316886,4.23847 6.005264,4.8909 2.044139,0.49608 55.248656,0.50867 57.352126,0.0136 z m 6.74013,-29.09957 c -0.37718,-3.60827 -2.47151,-6.11723 -5.97472,-7.15757 -1.22464,-0.36368 -4.75285,-0.41451 -29.12938,-0.41968 -19.713483,-0.004 -28.142187,0.081 -29.140398,0.29449 -1.40508,0.30051 -3.65276,1.55566 -4.500932,2.5134 -0.740733,0.83642 -1.739236,3.31042 -1.930561,4.78336 l -0.179048,1.37842 2.338468,0.0768 c 1.286158,0.0422 17.264904,0.0768 35.508321,0.0768 h 33.16986 z m -40.4067,-23.82261 c -0.0588,-0.0517 -1.64793,-0.17549 -3.5315,-0.27501 -17.247638,-0.91134 -32.227104,-6.59554 -35.615056,-13.51472 -0.886614,-1.81072 -0.886962,-4.71724 -7.85e-4,-6.55638 2.32858,-4.83266 8.666853,-8.24783 20.203751,-10.88614 l 0.742396,-0.16977 -1.994356,-2.14674 c -2.183943,-2.3508 -3.062619,-3.87638 -3.264563,-5.66803 -0.246368,-2.18577 1.114387,-4.6171 3.212097,-5.73922 0.987267,-0.52812 1.582593,-0.59631 6.250571,-0.71601 l 5.159375,-0.13229 0.132292,-10.318752 c 0.145522,-11.35073 0.127783,-11.22487 1.86008,-13.19785 0.477369,-0.54369 1.355468,-1.24941 1.951328,-1.56825 1.05209,-0.56298 1.33559,-0.57973 9.81463,-0.57973 h 8.73125 l 1.28129,0.65446 c 0.70472,0.35995 1.64234,1.06567 2.08362,1.56826 1.65762,1.88792 1.64968,1.82984 1.79447,13.12311 l 0.13229,10.318752 5.29167,0.13279 c 5.8047,0.14566 6.1222,0.22355 7.72565,1.89516 1.77911,1.85474 2.16451,4.41782 1.01008,6.7175 -0.36133,0.7198 -1.50693,2.23679 -2.54577,3.3711 -1.03885,1.13432 -1.84454,2.09963 -1.79043,2.14515 0.0541,0.0455 1.22948,0.35567 2.61192,0.68922 11.08742,2.67513 17.48938,6.99461 18.53449,12.50546 1.91774,10.11218 -16.32735,17.81138 -43.42255,18.32377 -3.43828,0.065 -6.29949,0.0759 -6.35824,0.0242 z m 13.25464,-7.85791 c 12.13585,-0.98163 23.15004,-3.7965 27.5611,-7.04374 1.35944,-1.00076 1.54306,-1.24375 1.54306,-2.04191 0,-2.68717 -7.24596,-5.88063 -18.67247,-8.22938 -0.43086,-0.0886 -1.36724,0.7763 -4.36562,4.03223 -2.09941,2.27974 -5.06727,5.50234 -6.59524,7.16132 -3.61783,3.92804 -4.44686,4.423 -7.40833,4.423 -2.70881,0 -3.7483,-0.43307 -5.70194,-2.37551 -1.15484,-1.14822 -7.760352,-8.253 -11.270803,-12.12268 l -1.151217,-1.26903 -3.655113,0.82387 c -4.79582,1.08097 -8.760517,2.40751 -11.661805,3.90188 -2.446277,1.26001 -4.394539,2.8469 -4.394539,3.57943 0,1.19629 4.041343,3.66863 8.714193,5.33099 5.013739,1.78364 13.878655,3.48432 20.522264,3.93706 2.52706,0.17221 14.00036,0.0976 16.53646,-0.10753 z m -6.28372,-8.77609 c 0.52151,-0.47294 2.40854,-2.46724 4.19341,-4.43177 1.78486,-1.96453 3.90809,-4.29384 4.71828,-5.17624 8.61802,-9.38618 11.2733,-12.42275 11.34637,-12.97566 l 0.0837,-0.63351 h -6.44099 c -5.40139,0 -6.53591,-0.0665 -7.02903,-0.41188 l -0.58804,-0.41188 v -12.02354 c 0,-11.670762 -0.0155,-12.039062 -0.52917,-12.552702 -0.50288,-0.50288 -0.88194,-0.52917 -7.63191,-0.52917 -6.80186,0 -7.12333,0.0228 -7.58885,0.53714 -0.45464,0.50238 -0.48899,1.28583 -0.53073,12.104692 -0.0245,6.36215 -0.0624,11.71637 -0.0841,11.89828 -0.0217,0.1819 -0.27756,0.56885 -0.56861,0.85989 -0.5004,0.50041 -0.88194,0.52917 -7.019758,0.52917 -5.435331,0 -6.514607,0.0626 -6.638282,0.38486 -0.09226,0.24043 0.779741,1.41163 2.323408,3.12063 2.833811,3.13732 13.735822,15.0099 15.638322,17.03054 0.70103,0.74456 1.59706,1.70819 1.99118,2.14139 1.53294,1.68492 2.90454,1.85493 4.35475,0.53976 z m -71.776584,31.25401 -0.0023,-24.63923 -1.109167,0.17736 c -2.338054,0.37387 -4.856347,2.64357 -5.539816,4.99295 -0.241249,0.82927 -0.327473,5.87278 -0.337931,19.76647 l -0.01404,18.65313 0.715081,1.35555 c 1.163415,2.20545 3.892876,4.22413 5.830386,4.3121 0.433883,0.0197 0.459921,-1.38056 0.457769,-24.61833 z m 142.221754,23.99272 c 1.5633,-0.75787 2.17947,-1.26205 3.15568,-2.58211 1.43593,-1.94172 1.45383,-2.21908 1.40931,-21.8378 -0.0454,-19.99519 0.006,-19.37722 -1.78504,-21.54765 -0.86153,-1.04415 -3.65752,-2.59844 -4.67429,-2.59844 h -0.6192 v 24.60625 24.60625 l 0.59531,-0.003 c 0.32743,-0.001 1.19063,-0.29119 1.91823,-0.64392 z M 132.03381,63.755668 c -1.89006,-6.67019 -7.48708,-11.82845 -14.39275,-13.2645 -2.51384,-0.52275 -10.14547,-0.53605 -13.09687,-0.0228 -4.24913,0.73891 -8.790207,3.40357 -11.385034,6.68066 -1.834424,2.31674 -4.073469,7.31554 -3.523221,7.86579 0.08025,0.0803 2.455405,0.0481 5.278122,-0.0714 9.377833,-0.39706 36.465093,-0.13374 36.985263,0.35955 0.0567,0.0538 0.19832,0.0388 0.31476,-0.0331 0.11644,-0.072 0.0353,-0.75334 -0.18027,-1.51416 z"
       id="path1"
       inkscape:label="path1" /></g></svg>
